HIERARCHY
ROOT Hips
{
	OFFSET 0.000000 0.000000 0.000000
	CHANNELS 6 Xposition Yposition Zposition Zrotation Yrotation Xrotation 
	JOINT LHipJoint
	{
		OFFSET 0.000000 0.000000 0.000000
		CHANNELS 3 Zrotation Yrotation Xrotation
		JOINT LeftUpLeg
		{
			OFFSET 1.363060 -1.794630 0.839290
			CHANNELS 3 Zrotation Yrotation Xrotation
			JOINT LeftLeg
			{
				OFFSET 2.448110 -6.726130 0.000000
				CHANNELS 3 Zrotation Yrotation Xrotation
				JOINT LeftFoot
				{
					OFFSET 2.562200 -7.039590 0.000000
					CHANNELS 3 Zrotation Yrotation Xrotation
					JOINT LeftToeBase
					{
						OFFSET 0.157640 -0.433110 2.322550
						CHANNELS 3 Zrotation Yrotation Xrotation
						End Site
						{
							OFFSET 0.000000 0.000000 0.000000
						}
					}
				}
			}
		}
	}
	JOINT RHipJoint
	{
		OFFSET 0.000000 0.000000 0.000000
		CHANNELS 3 Zrotation Yrotation Xrotation
		JOINT RightUpLeg
		{
			OFFSET -1.305520 -1.794630 0.839290
			CHANNELS 3 Zrotation Yrotation Xrotation
			JOINT RightLeg
			{
				OFFSET -2.542530 -6.985550 0.000000
				CHANNELS 3 Zrotation Yrotation Xrotation
				JOINT RightFoot
				{
					OFFSET -2.568260 -7.056230 0.000000
					CHANNELS 3 Zrotation Yrotation Xrotation
					JOINT RightToeBase
					{
						OFFSET -0.164730 -0.452590 2.363150
						CHANNELS 3 Zrotation Yrotation Xrotation
						End Site
						{
							OFFSET 0.000000 0.000000 0.000000
						}
					}
				}
			}
		}
	}
	JOINT LowerBack
	{
		OFFSET 0.000000 0.000000 0.000000
		CHANNELS 3 Zrotation Yrotation Xrotation
		JOINT Spine
		{
			OFFSET 0.028270 2.035590 -0.193380
			CHANNELS 3 Zrotation Yrotation Xrotation
			JOINT Spine1
			{
				OFFSET 0.056720 2.048850 -0.042750
				CHANNELS 3 Zrotation Yrotation Xrotation
				JOINT Neck
				{
					OFFSET 0.000000 0.000000 0.000000
					CHANNELS 3 Zrotation Yrotation Xrotation
					JOINT Neck1
					{
						OFFSET -0.054170 1.746240 0.172020
						CHANNELS 3 Zrotation Yrotation Xrotation
						JOINT Head
						{
							OFFSET 0.104070 1.761360 -0.123970
							CHANNELS 3 Zrotation Yrotation Xrotation
							End Site
							{
								OFFSET 0.000000 0.000000 0.000000
							}
						}
					}
				}
				JOINT LeftShoulder
				{
					OFFSET 0.000000 0.000000 0.000000
					CHANNELS 3 Zrotation Yrotation Xrotation
					JOINT LeftArm
					{
						OFFSET 3.362410 1.200890 -0.311210
						CHANNELS 3 Zrotation Yrotation Xrotation
						JOINT LeftForeArm
						{
							OFFSET 4.983000 -0.000000 -0.000000
							CHANNELS 3 Zrotation Yrotation Xrotation
							JOINT LeftHand
							{
								OFFSET 3.483560 -0.000000 -0.000000
								CHANNELS 3 Zrotation Yrotation Xrotation
								JOINT LeftFingerBase
								{
									OFFSET 0.000000 0.000000 0.000000
									CHANNELS 3 Zrotation Yrotation Xrotation
									JOINT LeftHandIndex1
									{
										OFFSET 0.715260 -0.000000 -0.000000
										CHANNELS 3 Zrotation Yrotation Xrotation
										End Site
										{
											OFFSET 0.000000 0.000000 0.000000
										}
									}
								}
								JOINT LThumb
								{
									OFFSET 0.000000 0.000000 0.000000
									CHANNELS 3 Zrotation Yrotation Xrotation
									End Site
									{
										OFFSET 0.000000 0.000000 0.000000
									}
								}
							}
						}
					}
				}
				JOINT RightShoulder
				{
					OFFSET 0.000000 0.000000 0.000000
					CHANNELS 3 Zrotation Yrotation Xrotation
					JOINT RightArm
					{
						OFFSET -3.136600 1.374050 -0.404650
						CHANNELS 3 Zrotation Yrotation Xrotation
						JOINT RightForeArm
						{
							OFFSET -5.241900 -0.000000 -0.000000
							CHANNELS 3 Zrotation Yrotation Xrotation
							JOINT RightHand
							{
								OFFSET -3.444170 -0.000000 -0.000000
								CHANNELS 3 Zrotation Yrotation Xrotation
								JOINT RightFingerBase
								{
									OFFSET 0.000000 0.000000 0.000000
									CHANNELS 3 Zrotation Yrotation Xrotation
									JOINT RightHandIndex1
									{
										OFFSET -0.622530 -0.000000 -0.000000
										CHANNELS 3 Zrotation Yrotation Xrotation
										End Site
										{
											OFFSET 0.000000 0.000000 0.000000
										}
									}
								}
								JOINT RThumb
								{
									OFFSET 0.000000 0.000000 0.000000
									CHANNELS 3 Zrotation Yrotation Xrotation
									End Site
									{
										OFFSET 0.000000 0.000000 0.000000
									}
								}
							}
						}
					}
				}
			}
		}
	}
}
MOTION
Frames: 5
Frame Time: 0.008333
-25.351770 18.200784 -6.471427 -163.821398 -88.387449 -177.232266 -7.228933 -1.697571 -2.534023 3.098181 -25.154153 -17.214107 -0.439222 6.995142 17.108644 -10.150513 27.473937 6.764742 0.069800 -1.704100 -4.688600 7.328489 1.839441 -0.819158 10.685286 7.641833 -20.752507 0.136190 -7.686254 19.595442 7.394318 -26.671996 0.401464 -0.447300 4.291100 -11.897200 -0.895248 0.617245 -7.669514 0.757269 0.478166 -9.238901 -2.801348 0.174562 -1.894289 -14.820499 -3.001159 -4.818137 22.787223 -8.144867 11.265327 5.911800 -3.787500 1.446200 -7.707946 -8.745000 2.005652 -84.281594 -5.543448 -17.616291 7.201684 -7.610340 -0.574617 -0.431657 0.498083 78.899795 -4.726425 17.355420 -1.265300 -7.125000 0.000000 0.000000 -29.594800 45.384800 -0.308800 6.732976 5.521286 1.066322 90.336787 1.532965 12.077025 -9.985083 13.775173 -1.338945 -0.661311 -0.403665 26.575824 -16.172992 9.900589 -2.974200 7.125000 0.000000 0.000000 7.977700 -19.027600 4.989300 
-25.370759 18.202357 -6.472776 -172.560299 -88.050558 -168.383881 -7.327425 -1.535815 -2.538699 3.029218 -26.185594 -16.757363 -0.458877 6.898151 16.815000 -10.708966 28.650467 6.119963 0.064900 -1.643400 -4.521000 7.356608 1.887180 -0.848107 10.313300 7.780468 -20.839434 0.105751 -7.742868 19.776572 7.372551 -26.533997 0.268484 -0.447200 4.290600 -11.895700 -1.189379 0.660435 -8.023596 0.696743 0.553874 -9.193511 -2.640319 0.210417 -1.664623 -14.506154 -3.095423 -5.351317 22.251096 -8.161815 11.962457 5.697300 -3.727600 1.645100 -7.712428 -8.675346 2.005256 -84.327753 -5.670320 -17.679533 7.154708 -7.547764 -0.574472 -0.440692 0.505684 79.097699 -4.871718 17.555409 -1.322300 -7.125000 0.000000 0.000000 -29.813000 45.551700 -0.446300 6.735174 5.577261 1.100069 90.315635 1.610510 12.117652 -9.975522 13.764409 -1.338633 -0.659971 -0.407801 26.653131 -16.313520 9.842248 -2.987700 7.125000 0.000000 0.000000 7.876400 -19.074300 4.916500 
-25.365815 18.204492 -6.478506 -176.220421 -88.046702 -164.748495 -7.317124 -1.506175 -2.534007 2.911611 -26.090421 -16.831625 -0.473703 6.912100 16.843203 -10.608704 28.438187 6.147497 0.060500 -1.587000 -4.365700 7.380828 1.923145 -0.851693 10.165597 7.803886 -20.754353 0.121221 -7.680807 19.617521 7.404464 -26.620606 0.383149 -0.427600 4.196500 -11.630100 -1.383440 0.576336 -7.870929 0.704932 0.469169 -9.200092 -2.509698 0.172048 -1.787642 -14.014223 -3.125236 -5.872972 21.625533 -8.085087 12.744524 5.437500 -3.616800 1.839800 -7.715432 -8.576784 1.998866 -84.382607 -5.691849 -17.742369 7.163014 -7.554753 -0.586246 -0.460737 0.511906 79.280962 -5.263392 17.914966 -1.470400 -7.125000 0.000000 0.000000 -30.326000 45.836400 -0.690200 6.741511 5.666506 1.143694 90.296635 1.474601 12.376749 -10.092827 13.920336 -1.363087 -0.655056 -0.409900 26.495695 -16.333516 9.751113 -2.966300 7.125000 0.000000 0.000000 7.860900 -19.168200 4.890000 
-25.374467 18.206065 -6.473113 -164.375796 -88.125735 -176.527130 -7.298656 -1.609480 -2.536906 3.316698 -26.011771 -16.807355 -0.453988 6.891111 16.808694 -10.632033 28.426883 6.131053 0.052600 -1.479700 -4.069800 7.338036 1.840388 -0.829979 10.672696 7.675206 -20.811954 0.160897 -7.654400 19.505270 7.315012 -26.412179 0.376065 -0.431000 4.213200 -11.677200 -0.862145 0.595757 -7.999273 0.820348 0.463246 -9.186688 -2.720989 0.146818 -1.697995 -14.270314 -3.076875 -5.823810 21.907884 -8.095858 12.829066 5.549000 -3.618100 1.869600 -7.709992 -8.619847 2.007831 -84.436824 -5.674544 -17.845498 7.203271 -7.611604 -0.594311 -0.464312 0.512744 79.357287 -5.362780 18.020755 -1.510200 -7.125000 0.000000 0.000000 -30.464600 45.919900 -0.763100 6.742308 5.623577 1.132567 90.302376 1.442002 12.565572 -10.147920 13.989946 -1.372314 -0.652457 -0.407805 26.446986 -16.233226 9.698153 -2.931000 7.125000 0.000000 0.000000 7.932000 -19.232900 4.923600 
-25.363793 18.209773 -6.478281 -166.206235 -88.218298 -174.722795 -7.215566 -1.641888 -2.513603 3.100320 -25.097771 -17.177070 -0.493475 6.911282 16.854548 -10.148949 27.444671 6.717555 0.072000 -1.730700 -4.761900 7.393914 1.858529 -0.843739 10.512443 8.098991 -20.527299 0.176007 -7.581881 19.317418 7.498776 -26.954890 0.268095 -0.390800 4.014000 -11.116100 -0.974084 0.459044 -7.765205 0.849169 0.302093 -9.205640 -2.626005 0.065485 -1.890560 -13.654981 -3.154595 -6.500402 21.099809 -8.041048 13.828096 5.222000 -3.501900 2.128500 -7.712827 -8.494453 1.997975 -84.476841 -5.673017 -17.969422 7.238113 -7.657065 -0.590807 -0.448473 0.509834 79.497933 -5.120998 17.792429 -1.417200 -7.125000 0.000000 0.000000 -30.144100 45.738200 -0.604900 6.747934 5.740376 1.186645 90.323854 1.687563 12.488853 -10.027679 13.839439 -1.348796 -0.655148 -0.407866 26.628879 -16.302990 9.745380 -2.958500 7.125000 0.000000 0.000000 7.882200 -19.177000 4.902000 
